<svg xmlns="http://www.w3.org/2000/svg" viewBox="0 0 48 48" fill="none">
  <circle cx="24" cy="24" r="24" fill="#E0F5F0" />
  <ellipse cx="24" cy="18" rx="13" ry="10" fill="#A8B0BC" />
  <ellipse cx="24" cy="13" rx="9" ry="4.5" fill="#BCC4CC" />
  <ellipse cx="24" cy="27" rx="10" ry="11" fill="#FFECD2" />
  <rect x="14.5" y="24" width="7" height="4.5" rx="1" fill="none" stroke="#1A4A3A" stroke-width="1.5" />
  <rect x="26.5" y="24" width="7" height="4.5" rx="1" fill="none" stroke="#1A4A3A" stroke-width="1.5" />
  <line x1="21.5" y1="26.25" x2="26.5" y2="26.25" stroke="#1A4A3A" stroke-width="1.5" />
  <line x1="11" y1="26.25" x2="14.5" y2="26.25" stroke="#1A4A3A" stroke-width="1.2" />
  <line x1="33.5" y1="26.25" x2="37" y2="26.25" stroke="#1A4A3A" stroke-width="1.2" />
  <circle cx="18" cy="26.25" r="1.3" fill="#2C1A0E" />
  <circle cx="29.7" cy="26.25" r="1.3" fill="#2C1A0E" />
  <path d="M 15 22 Q 18.5 20.5 21.5 22" stroke="#888" stroke-width="1.3" fill="none" stroke-linecap="round" />
  <path d="M 26.5 22 Q 29.5 20.5 33" stroke="#888" stroke-width="1.3" fill="none" stroke-linecap="round" />
  <path d="M 19.5 38.5 L 24 36 L 28.5 38.5 L 24 41 Z" fill="#1A4A3A" />
  <path d="M 20 32 Q 24 35 28 32" stroke="#5C3317" stroke-width="1.5" fill="none" stroke-linecap="round" />
</svg>
