<svg xmlns="http://www.w3.org/2000/svg" viewBox="0 0 48 48" fill="none">
  <circle cx="24" cy="24" r="24" fill="#E8F5EC" />
  <ellipse cx="24" cy="14" rx="13" ry="9" fill="#0D0600" />
  <path d="M 11 17 Q 20 11 37 15" stroke="#0D0600" stroke-width="3.5" fill="none" stroke-linecap="round" />
  <ellipse cx="24" cy="27" rx="11" ry="12" fill="#A0714F" />
  <path d="M 19 31.5 Q 21.5 29.5 24 30.5 Q 26.5 29.5 29 31.5 Q 26.5 33 24 32 Q 21.5 33 19 31.5 Z" fill="#0D0600" />
  <path d="M 21.5 34 Q 24 39 26.5 34 Q 25.5 37.5 24 38 Q 22.5 37.5 21.5 34 Z" fill="#0D0600" />
  <circle cx="20" cy="25" r="1.8" fill="#0D0600" />
  <circle cx="28" cy="25" r="1.8" fill="#0D0600" />
  <circle cx="20.6" cy="24.3" r="0.6" fill="white" />
  <circle cx="28.6" cy="24.3" r="0.6" fill="white" />
  <path d="M 17 21 Q 20 19.5 22.5 21" stroke="#0D0600" stroke-width="1.4" fill="none" stroke-linecap="round" />
  <path d="M 25.5 21.5 Q 28 20.5 31 21.5" stroke="#0D0600" stroke-width="1.4" fill="none" stroke-linecap="round" />
  <path d="M 19 32.5 Q 24 37.5 29 32.5" stroke="white" stroke-width="2" fill="none" stroke-linecap="round" />
</svg>
