<svg xmlns="http://www.w3.org/2000/svg" viewBox="0 0 48 48" fill="none">
  <circle cx="24" cy="24" r="24" fill="#F0EBF8" />
  <ellipse cx="14" cy="25" rx="3.5" ry="6.5" fill="#5C3317" />
  <ellipse cx="34" cy="25" rx="3.5" ry="6.5" fill="#5C3317" />
  <ellipse cx="24" cy="27" rx="10" ry="11" fill="#F5DEB3" />
  <circle cx="24" cy="11" r="7.5" fill="#5C3317" />
  <circle cx="24" cy="17.5" r="2.8" fill="#3A1F0A" />
  <circle cx="19.5" cy="26.5" r="4.3" fill="none" stroke="#7B68A0" stroke-width="1.6" />
  <circle cx="28.5" cy="26.5" r="4.3" fill="none" stroke="#7B68A0" stroke-width="1.6" />
  <line x1="23.8" y1="26.5" x2="24.2" y2="26.5" stroke="#7B68A0" stroke-width="1.6" />
  <line x1="13.5" y1="26.5" x2="15.2" y2="26.5" stroke="#7B68A0" stroke-width="1.4" />
  <line x1="32.8" y1="26.5" x2="34.5" y2="26.5" stroke="#7B68A0" stroke-width="1.4" />
  <circle cx="19.5" cy="26.5" r="1.4" fill="#2C1A0E" />
  <circle cx="28.5" cy="26.5" r="1.4" fill="#2C1A0E" />
  <circle cx="20.1" cy="25.9" r="0.5" fill="white" />
  <circle cx="29.1" cy="25.9" r="0.5" fill="white" />
  <circle cx="13.8" cy="28.5" r="1.8" fill="#EAD8F5" stroke="#9C7BB8" stroke-width="0.8" />
  <circle cx="34.2" cy="28.5" r="1.8" fill="#EAD8F5" stroke="#9C7BB8" stroke-width="0.8" />
  <path d="M 21 31.5 Q 24 33.5 27 31.5" stroke="#5C3317" stroke-width="1.3" fill="none" stroke-linecap="round" />
</svg>
