<svg xmlns="http://www.w3.org/2000/svg" viewBox="0 0 48 48" fill="none">
  <circle cx="24" cy="24" r="24" fill="#F0F2FF" />
  <ellipse cx="24" cy="31" rx="15" ry="17" fill="#0A1540" />
  <ellipse cx="24" cy="12" rx="11" ry="7" fill="#0A1540" />
  <ellipse cx="24" cy="25" rx="9" ry="11" fill="#EDE6F5" />
  <circle cx="13.5" cy="10" r="5" fill="#FFD700" />
  <circle cx="16" cy="8.5" r="4.2" fill="#0A1540" />
  <ellipse cx="20" cy="24" rx="2.4" ry="2" fill="#1A0A3A" />
  <ellipse cx="28" cy="24" rx="2.4" ry="2" fill="#1A0A3A" />
  <circle cx="20.8" cy="23.3" r="0.7" fill="white" />
  <circle cx="28.8" cy="23.3" r="0.7" fill="white" />
  <path d="M 17.6 22.3 Q 20 20.8 22.4 22.3" stroke="#1A0A3A" stroke-width="0.9" fill="none" />
  <path d="M 25.6 22.3 Q 28 20.8 30.4 22.3" stroke="#1A0A3A" stroke-width="0.9" fill="none" />
  <path d="M 21.5 29 Q 24 31 26.5 29" stroke="#8B6BA0" stroke-width="1.3" fill="none" stroke-linecap="round" />
  <circle cx="37" cy="12" r="1.4" fill="#B0C0FF" />
  <circle cx="40" cy="17" r="0.9" fill="#B0C0FF" />
  <circle cx="36" cy="18" r="0.7" fill="#B0C0FF" />
</svg>
